Coordinates
version=1
nRows=24
nColumns=38
inDegrees=no

Units are S.I. units (second, meters, Newtons, ...)
If the header above contains a line with 'inDegrees', this indicates whether rotational values are in degrees (yes) or radians (no).

endheader
time	pelvis_tilt	pelvis_list	pelvis_rotation	pelvis_tx	pelvis_ty	pelvis_tz	hip_flexion_r	hip_adduction_r	hip_rotation_r	knee_angle_r	ankle_angle_r	subtalar_angle_r	mtp_angle_r	hip_flexion_l	hip_adduction_l	hip_rotation_l	knee_angle_l	ankle_angle_l	subtalar_angle_l	mtp_angle_l	lumbar_extension	lumbar_bending	lumbar_rotation	arm_flex_r	arm_add_r	arm_rot_r	elbow_flex_r	pro_sup_r	wrist_flex_r	wrist_dev_r	arm_flex_l	arm_add_l	arm_rot_l	elbow_flex_l	pro_sup_l	wrist_flex_l	wrist_dev_l
1.33	2.82303	1.27523	-1.24179	0.682491	0.511162	0.960202	-0.341364	0.160812	-0.0495189	0.0986077	-0.325838	0	0	0.0992617	-0.177711	0.00182357	1.36752	-0.12927	0	0	-0.535778	0.159042	0.0292772	-0.153239	-0.669441	0.734486	0.951494	0.616466	0	0	-0.202103	-0.166282	-0.0487477	0.692504	1.45461	0	0
1.34	2.83744	1.27462	-1.26093	0.683462	0.518767	0.960316	-0.354529	0.156357	-0.0478961	0.0948066	-0.322278	0	0	0.11899	-0.181523	-0.0212624	1.35187	-0.118024	0	0	-0.539528	0.151453	0.0310989	-0.146684	-0.669504	0.740651	0.951595	0.614116	0	0	-0.202297	-0.169705	-0.0455731	0.69798	1.44873	0	0
1.35	2.84693	1.27206	-1.27492	0.684456	0.52662	0.960203	-0.369613	0.154271	-0.0471152	0.0909173	-0.318862	0	0	0.13748	-0.197412	-0.0613449	1.33345	-0.116248	0	0	-0.544391	0.145966	0.0328365	-0.141652	-0.671187	0.745388	0.955061	0.610494	0	0	-0.204752	-0.173488	-0.0422645	0.706167	1.44273	0	0
1.36	2.85605	1.26928	-1.28926	0.685442	0.534387	0.960041	-0.384547	0.151854	-0.0449589	0.0874515	-0.314784	0	0	0.152107	-0.211841	-0.0998573	1.30733	-0.119974	0	0	-0.549844	0.140361	0.0351907	-0.136002	-0.673517	0.75075	0.959067	0.606693	0	0	-0.206713	-0.177065	-0.0392133	0.714372	1.43509	0	0
1.37	2.86477	1.26648	-1.30301	0.686244	0.541711	0.95991	-0.398331	0.148706	-0.039808	0.0853272	-0.310908	0	0	0.163892	-0.219642	-0.127381	1.2731	-0.126579	0	0	-0.556224	0.135113	0.0377423	-0.128907	-0.676379	0.757179	0.962955	0.602632	0	0	-0.206959	-0.180472	-0.0351443	0.721674	1.42719	0	0
1.38	2.87274	1.26507	-1.31391	0.686849	0.549177	0.959564	-0.410642	0.145821	-0.0369235	0.0834443	-0.306912	0	0	0.175542	-0.225199	-0.151975	1.23352	-0.136397	0	0	-0.560829	0.13071	0.0388175	-0.123036	-0.678339	0.763145	0.966051	0.59699	0	0	-0.206719	-0.183947	-0.0305516	0.727645	1.4194	0	0
1.39	2.8811	1.26573	-1.32324	0.687406	0.556726	0.95908	-0.420823	0.14307	-0.0364782	0.0818364	-0.301356	0	0	0.188222	-0.227695	-0.172003	1.19009	-0.153175	0	0	-0.562389	0.126287	0.0381734	-0.115428	-0.67894	0.773101	0.966081	0.588104	0	0	-0.205402	-0.18891	-0.0221627	0.731159	1.40869	0	0
1.4	2.88652	1.26741	-1.32928	0.687881	0.564255	0.958481	-0.429618	0.141289	-0.0362635	0.0802215	-0.296569	0	0	0.200161	-0.229165	-0.190819	1.14453	-0.166716	0	0	-0.562329	0.122872	0.0377294	-0.108087	-0.679222	0.78213	0.965426	0.580167	0	0	-0.20281	-0.19325	-0.0138629	0.732122	1.39846	0	0
1.41	2.89054	1.26885	-1.33407	0.68831	0.571743	0.957862	-0.438788	0.139967	-0.0356909	0.0779702	-0.292141	0	0	0.209159	-0.229777	-0.21054	1.09664	-0.177177	0	0	-0.562281	0.119979	0.0381917	-0.101288	-0.679443	0.79041	0.964543	0.573212	0	0	-0.199307	-0.19712	-0.00548943	0.732015	1.3887	0	0
1.42	2.89453	1.27083	-1.33855	0.688662	0.579342	0.957161	-0.447967	0.138243	-0.0352321	0.0745395	-0.288738	0	0	0.21588	-0.228789	-0.230436	1.04711	-0.183523	0	0	-0.561181	0.11717	0.0390993	-0.0949909	-0.679171	0.79921	0.962424	0.566972	0	0	-0.195233	-0.200754	0.00345975	0.730794	1.3797	0	0
1.43	2.89779	1.27372	-1.34188	0.688884	0.587033	0.956378	-0.456868	0.13655	-0.0343695	0.0696581	-0.28653	0	0	0.221277	-0.226051	-0.249463	0.995677	-0.185052	0	0	-0.55907	0.114623	0.0394931	-0.0894771	-0.678547	0.806196	0.960028	0.561142	0	0	-0.190894	-0.20417	0.0123989	0.728172	1.3716	0	0
1.44	2.99633	1.3479	-1.44699	0.691027	0.59614	0.944527	-0.429863	0.108583	-0.0367231	0	-0.291309	0	0	0.305764	-0.180027	-0.2584	0.970655	-0.159809	0	0	-0.479641	0.0692503	0.0226769	-0.0941126	-0.666442	0.810769	0.956913	0.559696	0	0	-0.21509	-0.222203	0.0193544	0.750195	1.35063	0	0
1.45	2.99998	1.3546	-1.44896	0.690881	0.603859	0.943301	-0.43424	0.107247	-0.0316872	0	-0.285612	0	0	0.311989	-0.172117	-0.267532	0.913281	-0.14968	0	0	-0.473096	0.0676816	0.0210112	-0.0895823	-0.664742	0.815814	0.953303	0.557009	0	0	-0.210706	-0.225304	0.0285106	0.746275	1.34115	0	0
1.46	3.00277	1.3618	-1.44892	0.690592	0.611675	0.941963	-0.438036	0.106546	-0.0325017	0	-0.280194	0	0	0.317038	-0.162112	-0.272017	0.8526	-0.138432	0	0	-0.465626	0.0667597	0.0198097	-0.086599	-0.662821	0.819987	0.949199	0.554906	0	0	-0.205512	-0.228269	0.0384291	0.741322	1.3341	0	0
1.47	3.00398	1.36961	-1.44603	0.690128	0.619564	0.940575	-0.440833	0.106498	-0.0362532	0	-0.274957	0	0	0.320336	-0.148986	-0.268562	0.786524	-0.127849	0	0	-0.457631	0.0666138	0.017939	-0.0842209	-0.660058	0.823303	0.943991	0.552617	0	0	-0.19981	-0.230889	0.0482838	0.735389	1.32777	0	0
1.48	3.03696	1.39382	-1.46373	0.688671	0.62613	0.93924	-0.422404	0.101239	-0.0435728	0	-0.267227	0	0	0.311516	-0.0749694	-0.117623	0.635085	-0.107735	0	0	-0.432266	0.062021	0.00755351	-0.077751	-0.64559	0.830016	0.918848	0.552952	0	0	-0.179522	-0.234343	0.0697571	0.707269	1.31919	0	0
1.49	3.02841	1.39895	-1.45226	0.688183	0.634615	0.937688	-0.428246	0.102982	-0.0475493	0	-0.263257	0	0	0.307887	-0.0714654	-0.128415	0.567946	-0.108916	0	0	-0.426015	0.0638894	0.006885	-0.078786	-0.645215	0.829543	0.917753	0.552314	0	0	-0.176784	-0.235432	0.0761913	0.703873	1.31372	0	0
1.5	3.01751	1.40416	-1.43869	0.687507	0.643211	0.936114	-0.433335	0.104384	-0.0500471	0	-0.258931	0	0	0.30336	-0.0680634	-0.140983	0.505111	-0.110874	0	0	-0.419621	0.0662195	0.00643722	-0.0805581	-0.645697	0.828111	0.917533	0.551959	0	0	-0.174065	-0.235774	0.0823615	0.69988	1.30869	0	0
1.51	3.00605	1.40865	-1.42369	0.686603	0.651826	0.934547	-0.438709	0.105947	-0.0533037	0	-0.254501	0	0	0.297616	-0.0638364	-0.152017	0.447791	-0.110825	0	0	-0.414075	0.0689885	0.00537869	-0.0838951	-0.646828	0.823666	0.919099	0.551794	0	0	-0.171624	-0.236372	0.0890465	0.697065	1.30566	0	0
1.52	2.99203	1.4128	-1.40584	0.685518	0.66044	0.933066	-0.443608	0.107568	-0.0553253	0	-0.250457	0	0	0.291297	-0.059313	-0.162432	0.395218	-0.110019	0	0	-0.409041	0.0724571	0.00442431	-0.0880746	-0.648404	0.817575	0.92141	0.552254	0	0	-0.168558	-0.236392	0.0952396	0.693992	1.30231	0	0
1.53	2.97447	1.41751	-1.38384	0.684341	0.669094	0.931617	-0.446581	0.109274	-0.0561858	0	-0.247236	0	0	0.285415	-0.0541765	-0.168807	0.345615	-0.110967	0	0	-0.402738	0.0763215	0.00355917	-0.0927007	-0.64944	0.811587	0.922614	0.553688	0	0	-0.165107	-0.236249	0.101999	0.689854	1.29972	0	0
1.54	2.95326	1.42251	-1.3582	0.683212	0.677816	0.93021	-0.447946	0.111246	-0.0562488	0	-0.24345	0	0	0.278923	-0.0485409	-0.167698	0.296843	-0.115644	0	0	-0.395879	0.080151	0.00313501	-0.0970781	-0.64991	0.806749	0.922594	0.556477	0	0	-0.161904	-0.236161	0.10906	0.685697	1.29993	0	0
1.55	2.93193	1.42684	-1.33414	0.68229	0.686716	0.92901	-0.449122	0.112534	-0.0543486	0	-0.239875	0	0	0.272608	-0.0446058	-0.167501	0.256634	-0.123271	0	0	-0.389983	0.0834193	0.00353011	-0.100383	-0.649328	0.802937	0.92108	0.559626	0	0	-0.158646	-0.235322	0.113969	0.681026	1.29888	0	0
1.56	2.9093	1.43003	-1.31043	0.681532	0.695812	0.927898	-0.450929	0.113306	-0.0506507	0	-0.237803	0	0	0.267477	-0.0427145	-0.168602	0.231812	-0.13048	0	0	-0.385241	0.0860153	0.00445821	-0.102969	-0.648821	0.799727	0.919757	0.562174	0	0	-0.157327	-0.23474	0.116887	0.678318	1.29793	0	0
